inDegrees=yes
name=ik_Xsens_quaternion
DataType=double
version=3
OpenSimVersion=4.4-2022-07-23-0e9fedc
endheader
time	pelvis_tilt	pelvis_list	pelvis_rotation	pelvis_tx	pelvis_ty	pelvis_tz	hip_flexion_r	hip_adduction_r	hip_rotation_r	knee_angle_r	knee_angle_r_beta	ankle_angle_r	subtalar_angle_r	mtp_angle_r	hip_flexion_l	hip_adduction_l	hip_rotation_l	knee_angle_l	knee_angle_l_beta	ankle_angle_l	subtalar_angle_l	mtp_angle_l	lumbar_extension	lumbar_bending	lumbar_rotation	arm_flex_r	arm_add_r	arm_rot_r	elbow_flex_r	pro_sup_r	wrist_flex_r	wrist_dev_r	arm_flex_l	arm_add_l	arm_rot_l	elbow_flex_l	pro_sup_l	wrist_flex_l	wrist_dev_l
34.76666666666667	-3.156433683404771e-279	3.787720420085725e-278	3.156433683404771e-279	-8.814425663402488e-280	0.93	7.051540530721991e-279	4.594144125593695e-49	5.050293893447633e-278	2.35172635570524e-287	2.426570649309934e-20	2.521433351903056e-23	1.270948072707779e-270	-3.102900568134226e-274	7.57544084017145e-278	4.594144125593695e-49	-5.050293893447633e-278	1.041160661162213e-266	2.426570649309934e-20	2.526820167480449e-23	-6.778389721108154e-270	-5.050293893447633e-278	-1.262573473361908e-278	-4.338169421509219e-268	-1.38821421488295e-266	-6.354740363538895e-271	9.253570282560545e-06	0.0004583674407576125	1.180635474673447e-05	0.00029701846505276	0.000651998396285186	-7.57544084017145e-278	1.616094045903243e-276	-291.6164840181421	-9.514646801479625	-341.9663262523623	24.16104145930348	-49.65508228430831	-1.010058778689527e-277	-1.262573473361908e-278
34.78333333333333	-1.283329596320203e-298	1.36888490274155e-297	1.283329596320203e-298	-3.58373229505236e-299	0.93	2.866985836041888e-298	4.594144125593695e-49	2.053327354112325e-297	9.561550589801396e-307	2.426570649309934e-20	7.762973867090557e-23	4.593215538486796e-290	-1.121390512325878e-293	2.7377698054831e-297	4.594144125593695e-49	-2.053327354112325e-297	3.762762169128383e-286	2.426570649309934e-20	7.76836068266795e-23	-2.755929323092078e-289	-2.053327354112325e-297	-5.133318385280813e-298	-1.76379476677893e-287	-5.644143253692575e-286	-2.296607769243398e-290	9.253570282560545e-06	0.0004583674407576125	1.180635474673447e-05	0.00029701846505276	0.000651998396285186	-2.7377698054831e-297	6.570647533159441e-296	-291.6249076486557	-9.571132980690026	-341.9466459077479	24.19606458568837	-49.67474201130645	-4.106654708224651e-297	-5.133318385280813e-298
34.8	-4.637962199831367e-318	5.565555133863287e-317	4.637962199831367e-318	-1.295163446634077e-318	0.93	1.036130757307262e-317	4.594144125593695e-49	7.420740013795834e-317	0	2.426570649309934e-20	7.762973867090557e-23	1.867490349570587e-309	-4.55930261126529e-313	1.113110977366093e-316	4.594144125593695e-49	-7.420740013795834e-317	1.529848094368223e-305	2.426570649309934e-20	7.76836068266795e-23	-9.959948531043121e-309	-7.420740013795834e-317	-1.855184879932547e-317	-6.374367059867597e-307	-2.039797459157631e-305	-9.337451747852935e-310	9.253570282560545e-06	0.0004583674407576125	1.180635474673447e-05	0.00029701846505276	0.000651998396285186	-1.113110977366093e-316	2.374636774770728e-315	-291.6297326662314	-9.625240698437374	-341.9340162938988	24.21447213827051	-49.67222561738527	-1.484148002759167e-316	-1.855184879932547e-317
34.81666666666666	0	0	0	0	0.93	0	4.594144125593695e-49	0	0	2.426570649309934e-20	7.762973867090557e-23	0	0	0	4.594144125593695e-49	0	0	2.426570649309934e-20	7.76836068266795e-23	0	0	0	0	0	0	9.253570282560545e-06	0.0004583674407576125	1.180635474673447e-05	0.00029701846505276	0.000651998396285186	0	0	-291.6412845378931	-9.674265233365212	-341.9397515044179	24.23955338905116	-49.67480779856962	0	0
34.83333333333334	0	0	0	0	0.93	0	4.594144125593695e-49	0	0	2.426570649309934e-20	7.762973867090557e-23	0	0	0	4.594144125593695e-49	0	0	2.426570649309934e-20	7.76836068266795e-23	0	0	0	0	0	0	9.253570282560545e-06	0.0004583674407576125	1.180635474673447e-05	0.00029701846505276	0.000651998396285186	0	0	-291.642526202659	-9.72211308814043	-341.9472878805195	24.26632697710545	-49.71126663502892	0	0
34.85	0	0	0	0	0.93	0	4.594144125593695e-49	0	0	2.426570649309934e-20	7.762973867090557e-23	0	0	0	4.594144125593695e-49	0	0	2.426570649309934e-20	7.76836068266795e-23	0	0	0	0	0	0	9.253570282560545e-06	0.0004583674407576125	1.180635474673447e-05	0.00029701846505276	0.000651998396285186	0	0	-291.6487894105144	-9.774102681138801	-341.937173758019	24.29023948480764	-49.74232873092907	0	0
